#define email_width 22
#define email_height 22
static char email_bits[] = {
   0x00, 0x00, 0x00, 0x0c, 0x00, 0x00, 0x18, 0x00, 0x00, 0x30, 0x00, 0x00,
   0x6f, 0xff, 0x0f, 0xc1, 0x00, 0x18, 0x81, 0x81, 0x1b, 0x01, 0x83, 0x1b,
   0x01, 0x87, 0x1b, 0xe1, 0x01, 0x18, 0x79, 0x00, 0x18, 0x19, 0xfc, 0x1b,
   0x31, 0x00, 0x18, 0x61, 0xf0, 0x1b, 0xc1, 0x00, 0x18, 0x81, 0x01, 0x18,
   0x7f, 0xeb, 0x1f, 0xfe, 0xee, 0x1f, 0x00, 0x0e, 0x00, 0x00, 0x0f, 0x00,
   0x00, 0x00, 0x00, 0x00, 0x00, 0x00};
