#define mail2_width 22
#define mail2_height 22
static char mail2_bits[] = {
   0x00, 0x00, 0x00, 0x00, 0x00, 0x00, 0x00, 0x00, 0x00, 0x00, 0x00, 0x00,
   0xff, 0xff, 0x0f, 0x01, 0x00, 0x18, 0x01, 0xe0, 0x19, 0x01, 0x60, 0x19,
   0x01, 0xe0, 0x19, 0x01, 0xe0, 0x19, 0x01, 0x00, 0x18, 0x01, 0x00, 0x18,
   0x81, 0xff, 0x19, 0x01, 0x44, 0x19, 0x01, 0x00, 0x18, 0x01, 0xfc, 0x19,
   0x01, 0x50, 0x19, 0x01, 0x00, 0x18, 0xff, 0xff, 0x1f, 0xfe, 0xff, 0x1f,
   0x00, 0x00, 0x00, 0x00, 0x00, 0x00};
